<?xml version="1.0" encoding="utf-8"?>
<!-- Generator: Adobe Illustrator 19.0.0, SVG Export Plug-In . SVG Version: 6.00 Build 0)  -->
<svg version="1.1" id="Layer_1" xmlns="http://www.w3.org/2000/svg" xmlns:xlink="http://www.w3.org/1999/xlink" x="0px" y="0px"
	 viewBox="0 0 96 96" style="enable-background:new 0 0 96 96;" xml:space="preserve">
<style type="text/css">
	.st0{fill:#333333;}
</style>
<g id="XMLID_5_">
	<path id="XMLID_10_" class="st0" d="M48,18c-11.5,0-20.8,9.3-20.8,20.8c0,11.5,9.3,20.8,20.8,20.8s20.8-9.3,20.8-20.8
		C68.8,27.3,59.5,18,48,18z M35.2,45.9h25.7c0,4.6-7.3,9.2-12.8,9.2C42.4,55.1,35.2,50.2,35.2,45.9z M35,60.5
		c-8.1,3.4-13.9,9.8-15.2,17.5h56.3c-1.3-7.6-7.1-14.1-15.2-17.5c-3.8,2.3-8.2,3.6-13,3.6S38.8,62.8,35,60.5z"/>
</g>
</svg>
