<svg xmlns="http://www.w3.org/2000/svg" xmlns:xlink="http://www.w3.org/1999/xlink" viewBox="0 0 44 44"><defs><path id="a" d="M43 17.9H22.5v8.5h11.8c-1.1 5.4-5.7 8.5-11.8 8.5-7.2 0-13-5.8-13-13s5.8-13 13-13c3.1 0 5.9 1.1 8.1 2.9L37 5.5C33.1 2.1 28.1 0 22.4 0 10.3-.1.4 9.7.4 22s9.8 22 22 22c11 0 21-8 21-22 .1-1.3 0-2.7-.4-4.1z"/></defs><clipPath id="b"><use xlink:href="#a" overflow="visible"/></clipPath><path d="M-1.5 35V9l17 13-17 13z" clip-path="url(#b)" fill="#fbbc05"/><defs><path id="c" d="M43 17.9H22.5v8.5h11.8c-1.1 5.4-5.7 8.5-11.8 8.5-7.2 0-13-5.8-13-13s5.8-13 13-13c3.1 0 5.9 1.1 8.1 2.9L37 5.5C33.1 2.1 28.1 0 22.4 0 10.3-.1.4 9.7.4 22s9.8 22 22 22c11 0 21-8 21-22 .1-1.3 0-2.7-.4-4.1z"/></defs><clipPath id="d"><use xlink:href="#c" overflow="visible"/></clipPath><path d="M-1.5 9l17 13 7-6.1 24-3.9V-2h-48V9z" clip-path="url(#d)" fill="#ea4335"/><g><defs><path id="e" d="M43 17.9H22.5v8.5h11.8c-1.1 5.4-5.7 8.5-11.8 8.5-7.2 0-13-5.8-13-13s5.8-13 13-13c3.1 0 5.9 1.1 8.1 2.9L37 5.5C33.1 2.1 28.1 0 22.4 0 10.3-.1.4 9.7.4 22s9.8 22 22 22c11 0 21-8 21-22 .1-1.3 0-2.7-.4-4.1z"/></defs><clipPath id="f"><use xlink:href="#e" overflow="visible"/></clipPath><path d="M-1.5 35l30.1-23 7.9 1 10-15.1v48h-48V35z" clip-path="url(#f)" fill="#34a853"/></g><g><defs><path id="g" d="M43 17.9H22.5v8.5h11.8c-1.1 5.4-5.7 8.5-11.8 8.5-7.2 0-13-5.8-13-13s5.8-13 13-13c3.1 0 5.9 1.1 8.1 2.9L37 5.5C33.1 2.1 28.1 0 22.4 0 10.3-.1.4 9.7.4 22s9.8 22 22 22c11 0 21-8 21-22 .1-1.3 0-2.7-.4-4.1z"/></defs><clipPath id="h"><use xlink:href="#g" overflow="visible"/></clipPath><path d="M46.5 46l-31-24-4-3 35-10v37z" clip-path="url(#h)" fill="#4285f4"/></g></svg>
