<?xml version="1.0" encoding="iso-8859-1"?>
<!-- Generator: Adobe Illustrator 19.0.0, SVG Export Plug-In . SVG Version: 6.00 Build 0)  -->
<svg version="1.1" id="Capa_1" xmlns="http://www.w3.org/2000/svg" xmlns:xlink="http://www.w3.org/1999/xlink" x="0px" y="0px"
	 viewBox="0 0 512 512" style="enable-background:new 0 0 512 512;" xml:space="preserve">
<path style="fill:#303C42;" d="M256,490.667c-2.729,0-5.448-1.042-7.531-3.115c0,0-198.531-198.292-198.99-199.083
	C17.99,259.563,0,217.323,0,172C0,88.927,59.813,21.333,133.333,21.333c56.792,0,103.698,52.75,122.667,77.646
	c18.969-24.896,65.875-77.646,122.667-77.646C452.188,21.333,512,88.927,512,172c0,37.833-12.563,73.948-35.427,101.948
	c-0.49,0.927-213.031,213.594-213.031,213.594C261.458,489.625,258.729,490.667,256,490.667z"/>
<path style="fill:#D32F2F;" d="M255.99,464.927c0,0,202.542-202.635,202.833-202.979c20.531-24.396,31.844-56.344,31.844-89.948
	c0-71.313-50.24-129.333-112-129.333c-61.063,0-113.177,79.646-113.698,80.448c-3.938,6.083-14,6.083-17.938,0
	c-0.521-0.802-52.635-80.448-113.698-80.448c-61.76,0-112,58.021-112,129.333c0,40.438,16.344,77.906,44.854,102.802
	C67.219,275.708,255.99,464.927,255.99,464.927z"/>
<path style="opacity:0.1;enable-background:new    ;" d="M378.667,42.667c-3.911,0-7.784,0.346-11.611,0.958
	C412.559,51.134,448,105.799,448,172c0,33.604-9.255,65.552-26.053,89.948c-0.24,0.344-165.885,202.892-165.951,202.973
	c0.081-0.081,202.535-202.629,202.827-202.973c20.531-24.396,31.844-56.344,31.844-89.948
	C490.667,100.688,440.427,42.667,378.667,42.667z"/>
<path style="opacity:0.2;fill:#FFFFFF;enable-background:new    ;" d="M100.699,274.802C77.372,249.906,64,212.438,64,172
	c0-66.201,35.441-120.866,80.944-128.375c-3.827-0.612-7.699-0.958-11.611-0.958c-61.76,0-112,58.021-112,129.333
	c0,40.438,16.344,77.906,44.854,102.802c1.031,0.906,189.802,190.125,189.802,190.125l0.001-0.001
	C255.983,464.918,101.543,275.708,100.699,274.802z"/>
<linearGradient id="SVGID_1_" gradientUnits="userSpaceOnUse" x1="-46.1222" y1="641.4125" x2="-25.0755" y2="631.5987" gradientTransform="matrix(21.3333 0 0 -21.3333 996.3334 13791.667)">
	<stop  offset="0" style="stop-color:#FFFFFF;stop-opacity:0.2"/>
	<stop  offset="1" style="stop-color:#FFFFFF;stop-opacity:0"/>
</linearGradient>
<path style="fill:url(#SVGID_1_);" d="M256,490.667c-2.729,0-5.448-1.042-7.531-3.115c0,0-198.531-198.292-198.99-199.083
	C17.99,259.563,0,217.323,0,172C0,88.927,59.813,21.333,133.333,21.333c56.792,0,103.698,52.75,122.667,77.646
	c18.969-24.896,65.875-77.646,122.667-77.646C452.188,21.333,512,88.927,512,172c0,37.833-12.563,73.948-35.427,101.948
	c-0.49,0.927-213.031,213.594-213.031,213.594C261.458,489.625,258.729,490.667,256,490.667z"/>
<g>
</g>
<g>
</g>
<g>
</g>
<g>
</g>
<g>
</g>
<g>
</g>
<g>
</g>
<g>
</g>
<g>
</g>
<g>
</g>
<g>
</g>
<g>
</g>
<g>
</g>
<g>
</g>
<g>
</g>
</svg>
